<?xml version="1.0"?>
<svg width="964" height="1000" xmlns="http://www.w3.org/2000/svg" xmlns:svg="http://www.w3.org/2000/svg" enable-background="new 0 0 964 1000" version="1.1" xml:space="preserve">
 <g class="layer">
  <title>Layer 1</title>
  <path d="m321.22,121.24c18.79,-10.77 37.31,-21.27 55.81,-31.81c13.67,-7.79 27.3,-15.65 40.96,-23.46c9.7,-5.54 19.46,-10.97 29.11,-16.6c11.04,-6.44 21.87,-13.25 33.06,-19.42c2.11,-1.17 5.92,-1.02 8.15,0.11c8.66,4.4 17.07,9.33 25.45,14.27c11.92,7.03 23.65,14.38 35.61,21.34c9.13,5.31 18.56,10.09 27.72,15.37c17.28,9.96 34.4,20.19 51.69,30.13c8.39,4.82 17.14,9.03 25.5,13.9c16.19,9.44 32.12,19.33 48.37,28.68c16.84,9.69 33.99,18.87 50.9,28.46c18.38,10.43 36.64,21.1 54.98,31.62c11.77,6.75 23.58,13.43 35.39,20.12c12.7,7.2 25.45,14.31 38.1,21.58c4.6,2.64 9,5.62 13.88,8.68c0,156.98 0,314.63 0,472.08c-17.74,10.47 -35.25,21.01 -52.96,31.17c-10.54,6.04 -21.55,11.27 -32.11,17.29c-11.9,6.78 -23.47,14.16 -35.3,21.07c-11.76,6.87 -23.69,13.44 -35.51,20.2c-10.68,6.11 -21.29,12.33 -31.96,18.43c-19.32,11.03 -38.68,21.96 -57.98,33.03c-10.52,6.03 -20.88,12.36 -31.44,18.35c-7.84,4.45 -15.97,8.39 -23.79,12.87c-11.45,6.55 -22.69,13.47 -34.12,20.06c-12.11,6.98 -24.38,13.7 -36.52,20.64c-8.94,5.1 -17.8,10.36 -26.68,15.58c-3.47,2.04 -6.98,4.04 -10.29,6.31c-3.74,2.56 -6.4,-0.36 -9.08,-1.77c-6.72,-3.54 -13.18,-7.57 -19.75,-11.4c-15.1,-8.83 -30.14,-17.74 -45.31,-26.45c-11.68,-6.7 -23.55,-13.06 -35.27,-19.7c-11.58,-6.56 -23.05,-13.33 -34.63,-19.9c-10.84,-6.14 -21.87,-11.96 -32.61,-18.27c-14.89,-8.74 -29.5,-17.97 -44.42,-26.66c-9.23,-5.37 -18.96,-9.87 -28.23,-15.18c-15.16,-8.7 -30.08,-17.84 -45.21,-26.59c-9.46,-5.46 -19.17,-10.47 -28.67,-15.85c-11.13,-6.29 -22.11,-12.86 -33.23,-19.16c-14.5,-8.2 -29.12,-16.19 -43.6,-24.41c-5.42,-3.07 -10.64,-6.49 -15.89,-9.86c-0.66,-0.42 -1.16,-1.42 -1.29,-2.22c-0.22,-1.3 -0.07,-2.66 -0.07,-3.99c0,-151.84 0.08,-303.67 -0.24,-455.5c-0.02,-7.52 2.68,-11.09 8.61,-14.22c10.64,-5.63 21.05,-11.67 31.52,-17.6c14.97,-8.49 29.93,-17 44.86,-25.55c7.8,-4.47 15.5,-9.08 23.29,-13.56c16.48,-9.47 33.03,-18.82 49.47,-28.36c14.24,-8.27 28.33,-16.81 42.58,-25.08c5.89,-3.42 12.09,-6.33 18.03,-9.68c10.99,-6.19 21.9,-12.54 33.12,-19.09m323.82,40.3c-11.06,-6.37 -22.11,-12.74 -33.17,-19.12c-11.77,-6.78 -23.53,-13.58 -35.31,-20.33c-2.82,-1.61 -5.78,-2.98 -8.57,-4.62c-14.89,-8.77 -29.7,-17.66 -44.62,-26.37c-11.48,-6.71 -23.01,-13.34 -34.67,-19.73c-1.63,-0.9 -4.5,-1.04 -6.11,-0.2c-5.72,2.97 -11.07,6.63 -16.67,9.83c-12.42,7.12 -24.95,14.05 -37.35,21.19c-7.03,4.04 -13.83,8.49 -20.87,12.51c-14.34,8.2 -28.83,16.13 -43.16,24.34c-16.73,9.6 -33.34,19.41 -50.03,29.07c-9.8,5.68 -19.66,11.26 -29.48,16.9c-11.51,6.61 -22.95,13.34 -34.53,19.82c-8.78,4.9 -17.89,9.22 -26.57,14.29c-12.68,7.39 -25.03,15.33 -37.65,22.81c-9.54,5.64 -19.3,10.93 -28.96,16.36c-16.05,9.02 -32.1,18.02 -48.31,27.12c0,1.68 0,3.34 0,5c0,138.81 0,277.63 0,416.44c0,1.83 -0.15,3.68 0.06,5.49c0.1,0.95 0.57,2.25 1.3,2.69c7.8,4.73 15.65,9.38 23.56,13.94c9.41,5.42 18.91,10.69 28.34,16.07c11.11,6.34 22.18,12.76 33.29,19.11c9.96,5.69 19.99,11.28 29.94,17c21.37,12.29 42.67,24.68 64.04,36.95c21.52,12.36 43.09,24.62 64.65,36.92c14.61,8.33 29.2,16.68 43.85,24.93c3.53,2 7.38,3.45 10.87,5.51c14.3,8.41 28.49,17.03 42.8,25.45c8.94,5.26 18.32,9.84 26.92,15.59c4.87,3.26 8.73,2.72 13.09,0.16c12.93,-7.59 25.8,-15.3 38.77,-22.81c12.43,-7.2 24.96,-14.23 37.45,-21.31c4.52,-2.56 9.11,-5 13.59,-7.61c14.27,-8.3 28.46,-16.73 42.76,-24.96c13.14,-7.57 26.44,-14.87 39.58,-22.44c18.38,-10.58 36.65,-21.36 55.02,-31.96c10.33,-5.96 20.75,-11.76 31.15,-17.58c7.78,-4.36 15.67,-8.54 23.4,-12.99c17.62,-10.14 35.14,-20.43 52.73,-30.61c11.18,-6.47 22.4,-12.85 33.67,-19.31c0,-143.51 0,-287.13 0,-429.74c-6.52,-4.32 -12.34,-8.49 -18.45,-12.15c-10.91,-6.53 -21.95,-12.86 -33.04,-19.07c-13.38,-7.48 -26.88,-14.73 -40.31,-22.12c-3.56,-1.95 -7.07,-3.98 -10.58,-6.02c-15.34,-8.95 -30.65,-17.95 -46.02,-26.86c-11.51,-6.66 -23.06,-13.24 -34.63,-19.78c-3.36,-1.91 -6.93,-3.45 -10.3,-5.35c-6.98,-3.94 -13.89,-8.01 -21.47,-12.45z" fill="#AB0102" id="svg_2" opacity="1"/>
  <path d="m676.25,214.78c49.37,28.34 98.4,56.52 147.49,84.61c2.48,1.42 3.34,2.94 3.34,5.79c-0.08,127.5 -0.07,255 -0.06,382.5c0,2.3 0.12,4.21 -2.58,5.76c-36.39,20.8 -72.69,41.77 -109.02,62.7c-0.28,0.17 -0.61,0.26 -1.42,0.58c-2.93,-10.74 -5.86,-21.42 -8.74,-32.11c-3.29,-12.2 -6.4,-24.44 -9.85,-36.6c-0.94,-3.31 -0.31,-4.95 2.77,-6.67c18.17,-10.11 36.16,-20.53 54.3,-30.7c2.65,-1.49 3.58,-3.13 3.57,-6.21c-0.09,-98.5 -0.08,-197 -0.01,-295.5c0.01,-2.99 -0.74,-4.7 -3.48,-6.27c-73.31,-42.03 -146.56,-84.16 -219.83,-126.27c-1.13,-0.65 -2.33,-1.17 -4.5,-2.24c1.88,7.09 3.48,13.3 5.18,19.48c49.15,179.06 98.29,358.12 147.57,537.15c1.27,4.64 0.11,6.7 -3.89,8.98c-62.41,35.62 -124.75,71.38 -187.03,107.23c-2.92,1.68 -4.9,1.44 -7.59,-0.12c-30.96,-17.91 -61.95,-35.76 -93.01,-53.49c-2.94,-1.67 -3.86,-3.02 -2.81,-6.57c6.66,-22.47 12.99,-45.03 19.45,-67.56c0.27,-0.93 0.78,-1.78 1.27,-2.88c26.01,14.92 51.85,29.69 77.62,44.6c2.58,1.5 4.45,1.7 7.15,0.11c34.41,-20.26 68.9,-40.36 103.37,-60.52c1.92,-1.13 3.94,-1.68 2.98,-5.13c-12.74,-45.62 -25.26,-91.3 -37.96,-137.41c-1.69,0 -3.32,0 -4.95,0c-46,0 -92,0.06 -138,-0.11c-3.97,-0.02 -5.4,1.31 -6.38,4.88c-18.65,68.06 -37.41,136.08 -56.15,204.12c-0.39,1.42 -0.84,2.83 -1.4,4.71c-12.57,-7.13 -24.85,-14.09 -37.11,-21.07c-55.79,-31.78 -111.56,-63.6 -167.42,-95.26c-3.23,-1.83 -4.21,-3.75 -4.21,-7.35c0.1,-126.84 0.09,-253.67 -0.01,-380.5c-0.01,-2.97 0.95,-4.37 3.36,-5.76c91.66,-52.84 183.29,-105.74 274.92,-158.62c1.72,-1 3.52,-1.85 6.06,-3.17c-2.32,8.29 -4.41,15.91 -6.58,23.51c-6.87,23.97 -13.83,47.91 -20.58,71.9c-1.06,3.8 -3,6.12 -6.44,8.09c-57.12,32.81 -114.15,65.79 -171.28,98.6c-3.32,1.91 -4.44,3.91 -4.44,7.74c0.12,97.83 0.12,195.67 0,293.5c0,3.79 1.04,5.86 4.41,7.76c28.1,15.86 56.08,31.95 84.09,47.96c1.01,0.58 2.06,1.08 3.45,1.81c3.02,-10.88 6.03,-21.57 8.96,-32.29c43.24,-158.1 86.48,-316.2 129.72,-474.31c6.62,-24.21 13.3,-48.41 19.74,-72.67c1.1,-4.13 3.43,-6.58 6.58,-9.32c6.86,-5.93 12.39,-5.04 20.01,-0.61c59.51,34.65 119.32,68.76 179.37,103.22m-251.45,216.84c-0.29,-0.2 -0.57,-0.39 -0.8,-0.62c0,0 -0.03,0.05 0.13,-0.72c1.13,-0.49 2.27,-0.99 3.67,-1.56c0,0 0.19,0.21 0.43,0.67c0.59,-0.04 1.18,-0.07 2.57,-0.12c1.07,-0.02 2.13,-0.03 3.44,0.23c0.25,-0.17 0.51,-0.35 0.95,-0.75c0,0 0.29,0.02 0.92,-0.01c0.27,-0.31 0.54,-0.62 0.99,-1.34c0.2,-0.26 0.46,-0.4 1.3,-0.62c0.16,-0.32 0.32,-0.64 0.51,-0.87c0,0 -0.1,-0.01 0.49,-0.28c0.15,-0.59 0.3,-1.18 0.6,-1.67c0,0 -0.16,-0.07 0.49,-0.29c0.23,-1.56 0.47,-3.12 0.67,-5.24c0.23,-0.5 0.45,-1 1.3,-1.94c0.04,-0.73 0.08,-1.46 0.05,-2.66c0.05,-0.32 0.2,-0.6 1.02,-1.24c2.12,-3.78 4.46,-7.55 0.47,-11.58c0,0 -0.04,0.04 -0.03,-0.61c-0.42,-0.43 -0.84,-0.85 -1.67,-1.42c-0.24,-0.19 -0.38,-0.44 -0.67,-1.33c-0.38,-0.15 -0.76,-0.3 -1.42,-0.44c0,0 -0.18,-0.21 -0.58,-0.87c-1.72,-0.38 -3.45,-0.76 -5.43,-1.06c0,0 -0.18,-0.2 -0.66,-0.79c-2.04,-0.41 -4.09,-0.82 -6.36,-1.18c0,0 -0.16,-0.15 -0.57,-0.77c-3.76,-1.15 -7.5,-2.37 -11.3,-3.35c-0.49,-0.13 -1.3,0.97 -2.41,2.03c-0.26,1.54 -0.51,3.09 -0.81,5.38c1.03,0.4 2.06,0.8 2.99,1.32c0,0 0.05,-0.15 0.3,0.47c1.54,0.23 3.08,0.47 5.26,0.69c0.79,0.27 1.58,0.53 2.8,1.44c1.76,0.33 3.53,0.65 5.47,0.96c0,0 0.16,0.06 0.43,0.8c2.06,0.86 4.12,1.71 6.38,2.65c0.17,1.12 0.37,2.4 0.62,3.91c0,0 -0.16,0.16 -0.81,0.54c-0.67,3.12 -1.34,6.24 -1.92,9.83c-0.02,0.33 -0.15,0.6 -1.32,0.82c-5.12,-0.65 -10.24,-1.31 -15.32,-2.04c0,0 -0.02,0.09 -0.36,-0.63c-1.78,-0.3 -3.56,-0.61 -5.49,-0.89c0,0 -0.15,-0.07 -0.42,-0.73c-1.23,0.1 -2.45,0.19 -3.98,0.64c-0.19,0.24 -0.41,0.47 -1.36,0.77c-0.09,1.61 -0.17,3.22 0.09,5.07c0.22,0.16 0.41,0.36 1.01,1.21c0.73,0.06 1.46,0.12 2.41,0.12c0,0 0.18,0.12 0.53,0.79c0.95,0.08 1.91,0.16 2.96,0.35c0,0 -0.04,-0.13 0,0.49c0.89,0.01 1.77,0.02 3.21,0.02c0.49,0.23 0.98,0.47 1.69,1.31c-0.06,1.21 -0.12,2.43 -0.42,4.31c-2.32,7.6 -4.65,15.19 -6.98,22.78c-8.32,-6.98 -0.55,-14.5 -0.81,-22c-2,-0.52 -3.86,-1 -6,-1.55c-0.65,2.03 -1,3.84 -1.78,5.44c-4.47,9.23 -3.06,17.66 3.62,25.15c1.81,2.03 4.55,3.21 6.87,4.78c1.38,-2.07 3.26,-3.97 4.03,-6.25c1.93,-5.66 3.34,-11.49 5.31,-18.5c1.45,2.87 2.25,4.46 2.96,7.01c0.06,1.61 0.12,3.23 0.24,5.13c0,0 -0.22,0.2 -1.01,0.37c-0.34,2.12 -0.68,4.23 -0.96,6.64c0,0 -0.21,0.2 -0.81,0.66c-0.87,5.34 0.57,6.39 6.55,4.54c0,0 0.19,0.06 0.89,-0.14c0.33,-1.65 0.66,-3.29 1.05,-4.91c0,0 -0.07,-0.01 0.69,-0.14c0.6,-2.86 1.2,-5.71 1.78,-8.71c0,0 0.03,-0.14 0.74,-0.43c-0.1,-1.57 -0.19,-3.13 -0.5,-4.89c0,0 0.05,-0.27 0.06,-0.9c-0.29,-0.29 -0.57,-0.58 -0.78,-0.88c0,0 -0.05,0.05 -0.03,-0.58c-0.39,-0.44 -0.79,-0.88 -1.06,-1.35c0,0 -0.09,0.1 -0.01,-0.65c-1.02,-1.45 -2.03,-2.89 -2.92,-4.41c0,0 -0.1,0.11 -0.01,-0.64c-0.8,-0.99 -1.61,-1.99 -2.17,-3.14c0,0 -0.27,0.1 -0.15,-0.45c-0.27,-0.24 -0.54,-0.48 -0.71,-0.73c0,0 -0.04,0.08 -0.14,-0.45m21.18,-39.62c0,0 -0.06,-0.06 0.64,-0.05c0.63,-0.79 1.27,-1.58 2.29,-2.13c0,0 -0.36,-0.28 0.4,-0.24c0.82,-3.02 1.63,-6.04 2.38,-9.37c0,0 0.22,-0.23 0.83,-0.65c0.45,-2.23 0.9,-4.46 1.46,-6.59c0,0 -0.13,-0.06 0.57,-0.33c0.32,-1.75 1.18,-3.67 0.72,-5.18c-0.23,-0.72 -2.98,-0.66 -4.63,-1.02c0,0 -0.08,0.03 0,-0.52c-0.52,0.06 -1.03,0.13 -1.61,0.08c0,0 0.05,0.11 -0.75,0.09c-0.66,2.18 -1.32,4.36 -1.93,6.76c0,0 -0.16,0.17 -0.8,0.56c-0.77,3.39 -1.53,6.79 -2.23,10.42c0,0 -0.17,0.17 -1.06,0.19c-5.63,-0.91 -11.26,-1.82 -17.11,-2.7c0,0 -0.15,-0.17 -0.54,-0.75c-2.22,-0.46 -4.44,-0.91 -7.18,-1.22c-0.41,0.58 -0.83,1.16 -1.88,1.94c-0.13,1.2 -0.26,2.41 -0.55,3.69c0,0 0.15,-0.09 0.08,0.66c3.06,0.97 6.12,1.93 9.24,2.93c0,0 0.04,-0.06 0.19,0.69c1.51,0.23 3.02,0.46 4.5,0.74c0,0 0.03,-0.05 0.49,0.52c0.72,0.05 1.43,0.1 2.34,0.14c0,0 0.13,0.14 0.61,0.77c1.02,0.1 2.05,0.2 3.36,0.22c0,0 0.22,0.21 0.68,0.82c1,0.11 2.01,0.22 3.28,0.23c0,0 0.21,0.19 0.63,0.75c1.2,-0.22 2.41,-0.44 3.76,-0.8c0,0 0.2,0.03 0.85,0.08c0.32,-0.27 0.64,-0.54 0.97,-0.73m-82.99,272c0,0 -0.01,0.03 -0.44,-0.57c-2.22,-0.44 -4.44,-0.88 -7.47,-1.31c-2.45,-0.66 -4.88,-1.53 -7.38,-1.93c-3.97,-0.64 -7.48,0.6 -9.18,4.37c-2.27,5.08 -3.66,10.31 0.23,15.5c1.68,2.24 3.11,4.75 4.17,7.34c3.95,9.56 12.84,9.5 21.38,11.86c0.22,-2.86 0.38,-4.95 0.25,-7.7c-1.32,-1.74 -2.64,-3.48 -3.99,-5.42c0,0 0.12,-0.18 0.8,-0.56c0.41,-2.08 0.82,-4.17 1.2,-6.43c0,0 0.09,-0.15 0.77,-0.55c0.21,-1.54 0.43,-3.09 0.67,-4.61c0,0 -0.03,-0.01 0.81,-0.02c2.06,-0.32 4.12,-0.63 6.28,-1.39c0.05,-0.32 0.21,-0.57 1.19,-1.05c-0.31,-1.73 -0.62,-3.47 -1.17,-5.19c0,0 -0.15,-0.17 -0.6,-0.81c-1.01,-0.09 -2.02,-0.19 -3.3,-0.23c0,0 -0.2,-0.2 -0.65,-0.78c-1.2,-0.16 -2.4,-0.33 -3.57,-0.52m-0.52,-3.5c2.84,0.06 5.68,0.12 8.65,0.08c0,0 0.17,-0.02 0.85,0.06c0.29,-0.32 0.58,-0.63 1.25,-1.51c2.4,-6.64 5.05,-13.22 7.12,-19.96c1.63,-5.31 -0.6,-9.24 -5.91,-10.89c-5.4,-1.67 -10.94,-2.87 -16.41,-4.3c-2.84,-0.75 -5.68,-1.54 -8.61,-2.34c-0.29,2.84 -0.48,4.63 -0.69,6.73c8.42,2.33 16.69,4.62 25.41,7.04c-1.79,6.52 -3.43,12.52 -5.16,18.84c-9,-2.42 -17.39,-4.68 -26.05,-7.01c-0.67,2.82 -1.17,4.89 -1.77,7.39c2.18,0.47 4.03,0.88 6.3,1.88c4.89,1.12 9.78,2.24 14.59,3.49c0,0 0.05,-0.14 0.43,0.5m93.45,-347.58c-0.13,-0.11 -0.25,-0.23 -0.32,-1.12c0.65,-2.41 1.17,-4.86 1.96,-7.22c1.12,-3.38 0.82,-6.3 -2.42,-8.29c-5.05,-3.11 -12.02,-3.58 -14.51,-1.07c-0.35,0.35 -0.76,0.74 -0.89,1.19c-2.65,9.16 -5.26,18.34 -7.97,27.8c11.36,3.11 21.85,5.99 32.7,8.96c0.64,-2.53 1.11,-4.4 1.65,-6.52c-3.27,-1.06 -6.18,-2.01 -9.38,-3.06c5.61,-7.51 15.25,-11.71 16.25,-22.54c-2.12,-0.63 -4.08,-1.21 -6.04,-1.79c0.26,0.49 0.53,0.97 0.79,1.46c-3.82,4.18 -7.64,8.36 -11.82,12.2m71.25,164.37c-13.35,-48.5 -26.7,-97 -40.05,-145.51c-0.3,0.07 -0.59,0.14 -0.89,0.21c-17.84,64.51 -35.67,129.02 -53.59,193.83c36.18,0 71.8,0 107.94,0c-4.43,-16.1 -8.8,-31.93 -13.41,-48.53m-118.45,20.98c-1.44,1.39 -2.88,2.78 -4.32,4.17c-0.44,-2.26 -0.13,-3.87 0.28,-5.46c2.77,-10.7 2.41,-11.34 -8.19,-14.13c-0.64,-0.17 -1.25,-0.47 -1.9,-0.59c-3.43,-0.64 -6.15,0.58 -7.15,3.88c-2.62,8.71 -4.93,17.51 -7.49,26.77c11.11,3.04 21.74,5.94 32.67,8.93c0.6,-2.54 1.04,-4.42 1.55,-6.56c-3.25,-1.04 -6.14,-1.97 -9.34,-2.99c5.74,-7.46 15.33,-11.7 16.28,-22.67c-2.09,-0.57 -4.06,-1.11 -5.35,-1.46c-2.47,3.62 -4.49,6.6 -7.04,10.11m63.4,-217.62c1.03,-3.61 2.06,-7.22 3.1,-10.86c2.42,0.42 4.32,0.75 6.54,1.14c0.63,-2.31 1.17,-4.3 1.83,-6.74c-7.52,-2.05 -14.54,-3.95 -21.56,-5.87c-10.08,-2.75 -17.08,3.82 -15.11,14.18c2.47,13.03 13.53,22.66 27.81,23.88c0.53,-1.93 1.08,-3.93 1.7,-6.16c-2.32,-0.86 -4.25,-1.58 -6.33,-2.35c0.68,-2.33 1.28,-4.38 2.02,-7.22m-82.17,273.88c1.93,0.47 3.85,1.14 5.81,1.36c4.39,0.48 7.61,-1.57 8.93,-5.63c1.8,-5.51 3.21,-11.16 4.48,-16.82c1.06,-4.68 -0.99,-8.36 -5.46,-9.79c-5.37,-1.74 -10.82,-3.26 -16.31,-4.56c-5.41,-1.28 -9.13,0.85 -10.81,6.16c-1.65,5.23 -3.06,10.54 -4.31,15.87c-1.13,4.85 1.03,8.41 5.88,10.01c3.62,1.19 7.33,2.1 11.79,3.4m10.54,8.58c-10.49,-3.02 -20.98,-6.04 -31.72,-9.14c-0.74,2.54 -1.29,4.4 -1.95,6.68c4.41,1.29 8.51,2.48 13.04,3.79c-1.82,6.4 -3.55,12.51 -5.34,18.81c-4.59,-1.21 -8.56,-2.25 -12.93,-3.39c-0.61,2.29 -1.14,4.27 -1.75,6.57c11.1,3.06 21.6,5.95 32.43,8.94c0.72,-2.56 1.24,-4.42 1.84,-6.56c-4.42,-1.34 -8.46,-2.56 -12.77,-3.86c1.89,-6.56 3.6,-12.54 5.35,-18.65c4.57,1.16 8.51,2.17 12.8,3.26c0.54,-2.28 0.96,-4.02 1,-6.45m35.64,-228.27c0.46,-1.73 0.91,-3.46 1.47,-5.57c-2.38,-0.6 -4.37,-1.11 -6.69,-1.7c-2.65,9.89 -5.16,19.26 -7.73,28.85c3.33,0.94 6.11,1.72 9.74,2.75c0,-4.56 0,-8.38 0,-12.8c9.02,2.47 17.41,4.76 26.01,7.1c0.67,-2.7 1.14,-4.55 1.66,-6.64c-8.86,-2.51 -17.21,-4.87 -25.63,-7.25c0.44,-1.76 0.72,-2.88 1.17,-4.74m-83.79,278.9c-0.43,1.88 -0.87,3.76 -1.41,6.12c3.39,0.47 6.22,0.85 10.05,1.37c-0.21,-4.47 -0.39,-8.23 -0.59,-12.55c9.38,2.58 17.65,4.85 26.29,7.22c0.62,-2.37 1.14,-4.35 1.72,-6.59c-8.89,-2.53 -17.25,-4.91 -25.56,-7.28c0.93,-3.85 1.7,-7.01 2.52,-10.41c-2.44,-0.63 -4.29,-1.1 -6.5,-1.66c-2.15,8.02 -4.17,15.53 -6.52,23.78z" fill="#AD0202" id="svg_4" opacity="1"/>
  <path d="m456.28,313.27c3.82,-4.19 7.64,-8.37 11.46,-12.55c-0.26,-0.49 -0.53,-0.97 -0.79,-1.46c1.96,0.58 3.92,1.16 6.04,1.79c-1,10.83 -10.64,15.03 -16.25,22.54c3.2,1.05 6.11,2 9.38,3.06c-0.54,2.12 -1.01,3.99 -1.65,6.52c-10.85,-2.97 -21.34,-5.85 -32.7,-8.96c2.71,-9.46 5.32,-18.64 7.97,-27.8c0.13,-0.45 0.54,-0.84 0.89,-1.19c2.49,-2.51 9.46,-2.04 14.51,1.07c3.24,1.99 3.54,4.91 2.42,8.29c-0.79,2.36 -1.31,4.81 -2.15,7.84c-0.14,0.92 -0.08,1.2 -0.03,1.49c0.3,-0.21 0.6,-0.43 0.9,-0.64m-8.61,2.82c1.24,-4.62 2.48,-9.25 3.83,-14.29c-2.24,-0.66 -4.06,-1.19 -6.34,-1.87c-1.82,6.7 -3.5,12.87 -5.25,19.31c2.24,0.64 4.1,1.17 6.15,1.75c0.54,-1.66 0.95,-2.91 1.61,-4.9z" fill="#FCF0EF" id="svg_6" opacity="1"/>
  <path d="m408.98,498c2.29,-3.24 4.31,-6.22 6.78,-9.84c1.29,0.35 3.26,0.89 5.35,1.46c-0.95,10.97 -10.54,15.21 -16.28,22.67c3.2,1.02 6.09,1.95 9.34,2.99c-0.51,2.14 -0.95,4.02 -1.55,6.56c-10.93,-2.99 -21.56,-5.89 -32.67,-8.93c2.56,-9.26 4.87,-18.06 7.49,-26.77c1,-3.3 3.72,-4.52 7.15,-3.88c0.65,0.12 1.26,0.42 1.9,0.59c10.6,2.79 10.96,3.43 8.19,14.13c-0.41,1.59 -0.72,3.2 -0.28,5.46c1.44,-1.39 2.88,-2.78 4.58,-4.44m-19.58,4.76c-0.37,1.57 -0.73,3.14 -1.18,5.06c2.07,0.59 3.89,1.12 6.24,1.8c1.77,-6.55 3.43,-12.66 5.18,-19.14c-2.33,-0.65 -4.14,-1.16 -6.32,-1.77c-1.31,4.76 -2.49,9.03 -3.92,14.05z" fill="#FDF1F0" id="svg_7" opacity="1"/>
  <path d="m432.51,450.98c0,0 -0.03,0.14 -0.26,0.5c-0.93,3.07 -1.62,5.78 -2.31,8.48c0,0 0.07,0.01 -0.17,0.27c-0.66,1.79 -1.08,3.32 -1.51,4.85c0,0 -0.19,-0.06 -0.62,-0.01c-3.22,-0.55 -6.76,-0.41 -5.52,-5.05c0,0 0.21,-0.2 0.43,-0.63c0.66,-2.41 1.1,-4.39 1.53,-6.38c0,0 0.22,-0.2 0.43,-0.58c0.02,-2.16 -0.17,-3.94 -0.36,-5.71c-0.8,-1.59 -1.6,-3.18 -3.05,-6.05c-1.97,7.01 -3.38,12.84 -5.31,18.5c-0.77,2.28 -2.65,4.18 -4.03,6.25c-2.32,-1.57 -5.06,-2.75 -6.87,-4.78c-6.68,-7.49 -8.09,-15.92 -3.62,-25.15c0.78,-1.6 1.13,-3.41 1.78,-5.44c2.14,0.55 4,1.03 6,1.55c0.26,7.5 -7.51,15.02 0.81,22c2.33,-7.59 4.66,-15.18 7.49,-23.17c2.55,-0.06 4.58,0.28 6.62,0.62c0,0 0.03,-0.05 0.06,0.22c0.32,0.48 0.59,0.68 0.87,0.88c0,0 0.04,-0.08 0.01,0.18c0.19,0.52 0.41,0.77 0.62,1.02c0,0 0.27,-0.1 0.24,0.28c0.68,1.43 1.39,2.47 2.11,3.51c0,0 0.1,-0.11 0.07,0.26c0.94,1.84 1.91,3.31 2.87,4.79c0,0 0.09,-0.1 0.05,0.21c0.33,0.77 0.7,1.22 1.08,1.67c0,0 0.05,-0.05 0.03,0.26c0.25,0.61 0.52,0.9 0.79,1.2c0,0 -0.05,0.27 0.01,0.78c-0.05,1.9 -0.16,3.28 -0.27,4.67z" fill="#FCEFEF" id="svg_8" opacity="1"/>
  <path d="m472.05,281.05c-0.67,2.44 -1.27,4.49 -1.95,6.82c2.08,0.77 4.01,1.49 6.33,2.35c-0.62,2.23 -1.17,4.23 -1.7,6.16c-14.28,-1.22 -25.34,-10.85 -27.81,-23.88c-1.97,-10.36 5.03,-16.93 15.11,-14.18c7.02,1.92 14.04,3.82 21.56,5.87c-0.66,2.44 -1.2,4.43 -1.83,6.74c-2.22,-0.39 -4.12,-0.72 -6.54,-1.14c-1.04,3.64 -2.07,7.25 -3.17,11.26m-15.35,-5.29c1.81,3.13 3.61,6.26 6.2,10.75c1.94,-7.15 3.48,-12.81 5.13,-18.88c-2.71,-0.78 -5.04,-1.63 -7.45,-2.09c-1.66,-0.32 -4.61,-0.67 -4.92,-0.02c-0.91,1.93 -1.02,4.35 -1.01,6.58c0.01,1.01 1.05,2.03 2.05,3.66z" fill="#FCF1F0" id="svg_9" opacity="1"/>
  <path d="m389.56,554.4c-4.07,-1.17 -7.78,-2.08 -11.4,-3.27c-4.85,-1.6 -7.01,-5.16 -5.88,-10.01c1.25,-5.33 2.66,-10.64 4.31,-15.87c1.68,-5.31 5.4,-7.44 10.81,-6.16c5.49,1.3 10.94,2.82 16.31,4.56c4.47,1.43 6.52,5.11 5.46,9.79c-1.27,5.66 -2.68,11.31 -4.48,16.82c-1.32,4.06 -4.54,6.11 -8.93,5.63c-1.96,-0.22 -3.88,-0.89 -6.2,-1.49m8.63,-25.28c-3.68,-1.01 -7.37,-2 -11.03,-3.06c-2.29,-0.67 -3.73,-0.37 -4.34,2.37c-0.99,4.38 -2.51,8.63 -3.41,13.02c-0.2,1.03 0.96,3.12 1.93,3.45c4.56,1.57 9.23,2.83 13.94,3.84c0.91,0.2 2.86,-0.99 3.16,-1.91c1.67,-5.17 2.99,-10.45 4.48,-15.9c-1.57,-0.62 -2.78,-1.1 -4.73,-1.81z" fill="#FDEFEF" id="svg_10" opacity="1"/>
  <path d="m367.01,665.1c0,0 0.2,0.2 0.62,0.41c1.39,0.36 2.36,0.51 3.33,0.66c0,0 0.15,0.17 0.5,0.51c0.26,1.93 0.17,3.53 0.08,5.13c-0.24,0.2 -0.4,0.45 -0.89,1.04c-2.42,1.25 -5.16,-3.23 -6.68,1.13c0,0 0.03,0.01 -0.18,0.31c-0.53,1.77 -0.83,3.24 -1.14,4.71c0,0 -0.09,0.15 -0.32,0.54c-0.71,2.4 -1.18,4.41 -1.65,6.42c0,0 -0.12,0.18 -0.33,0.56c-0.52,1.56 -0.83,2.74 -1.24,4.29c2.11,0.52 3.91,0.97 5.72,1.42c-0.15,2.08 -0.31,4.17 -0.53,7.03c-8.54,-2.36 -17.43,-2.3 -21.38,-11.86c-1.06,-2.59 -2.49,-5.1 -4.17,-7.34c-3.89,-5.19 -2.5,-10.42 -0.23,-15.5c1.7,-3.77 5.21,-5.01 9.18,-4.37c2.5,0.4 4.93,1.27 8.08,2.12c2.87,0.71 5.04,1.22 7.2,1.72c0,0 0.01,-0.03 0.28,0.21c1.43,0.44 2.59,0.65 3.75,0.86m-22.92,4.38c-2.02,8.27 5.14,12.35 7.46,18.64c0.39,-0.1 0.79,-0.21 1.18,-0.31c1.6,-5.78 3.19,-11.57 4.88,-17.69c-3.68,-1.1 -6.94,-2.24 -10.29,-2.95c-0.85,-0.19 -2,0.99 -3.23,2.31z" fill="#FDEFEF" id="svg_11" opacity="1"/>
  <path d="m400.67,563.46c-0.22,2.08 -0.64,3.82 -1.18,6.1c-4.29,-1.09 -8.23,-2.1 -12.8,-3.26c-1.75,6.11 -3.46,12.09 -5.35,18.65c4.31,1.3 8.35,2.52 12.77,3.86c-0.6,2.14 -1.12,4 -1.84,6.56c-10.83,-2.99 -21.33,-5.88 -32.43,-8.94c0.61,-2.3 1.14,-4.28 1.75,-6.57c4.37,1.14 8.34,2.18 12.93,3.39c1.79,-6.3 3.52,-12.41 5.34,-18.81c-4.53,-1.31 -8.63,-2.5 -13.04,-3.79c0.66,-2.28 1.21,-4.14 1.95,-6.68c10.74,3.1 21.23,6.12 31.9,9.49z" fill="#FDEEEE" id="svg_12" opacity="1"/>
  <path d="m371.29,660.56c0,0 -0.17,0.02 -0.65,0.06c-3.18,-0.22 -5.87,-0.49 -8.55,-0.76c0,0 -0.05,0.14 -0.3,-0.15c-5.08,-1.46 -9.92,-2.63 -14.75,-3.8c-1.86,-0.4 -3.71,-0.81 -5.89,-1.28c0.6,-2.5 1.1,-4.57 1.77,-7.39c8.66,2.33 17.05,4.59 26.05,7.01c1.73,-6.32 3.37,-12.32 5.16,-18.84c-8.72,-2.42 -16.99,-4.71 -25.41,-7.04c0.21,-2.1 0.4,-3.89 0.69,-6.73c2.93,0.8 5.77,1.59 8.61,2.34c5.47,1.43 11.01,2.63 16.41,4.3c5.31,1.65 7.54,5.58 5.91,10.89c-2.07,6.74 -4.72,13.32 -7.61,20.3c-0.81,0.58 -1.12,0.83 -1.44,1.09z" fill="#FCEEEE" id="svg_13" opacity="1"/>
  <path d="m423.01,399.88c-0.79,-0.27 -1.58,-0.53 -2.98,-1.01c-2.05,-0.5 -3.47,-0.8 -4.9,-1.1c0,0 -0.05,0.15 -0.2,-0.15c-1.03,-0.79 -1.91,-1.27 -2.8,-1.76c0.26,-1.55 0.51,-3.1 1.34,-5.02c4.9,0.52 9.23,1.42 13.55,2.32c0,0 0.16,0.15 0.56,0.39c2.42,0.66 4.43,1.1 6.44,1.53c0,0 0.18,0.2 0.58,0.43c2.08,0.65 3.75,1.07 5.43,1.49c0,0 0.18,0.21 0.47,0.48c0.65,0.43 1.02,0.59 1.38,0.76c0.04,0.3 0.18,0.55 0.69,1.1c0.65,0.82 1.02,1.26 1.39,1.71c0,0 0.04,-0.04 0.06,0.41c-0.35,4.15 -0.72,7.85 -1.08,11.54c-0.23,0.23 -0.38,0.51 -0.62,1.34c-0.29,1.2 -0.38,1.89 -0.48,2.58c-0.23,0.51 -0.45,1.01 -0.83,2.12c-0.49,2.02 -0.83,3.44 -1.17,4.85c0,0 0.16,0.07 -0.16,0.2c-0.5,0.68 -0.68,1.25 -0.87,1.81c0,0 0.1,0.01 -0.17,0.07c-0.43,0.37 -0.59,0.68 -0.76,0.99c-0.32,0.04 -0.58,0.18 -1.17,0.71c-0.67,0.54 -0.95,0.82 -1.23,1.1c0,0 -0.29,-0.02 -0.65,0.08c-0.52,0.19 -0.68,0.28 -0.84,0.37c-1.06,0.02 -2.12,0.03 -3.9,-0.09c-1.18,-0.15 -1.64,-0.18 -2.1,-0.2c0,0 -0.19,-0.21 -0.61,-0.44c-3.73,-1.03 -7.03,-1.81 -10.33,-2.59c-0.5,-0.23 -0.99,-0.47 -2.07,-0.86c-1.28,-0.27 -1.97,-0.38 -2.66,-0.48c0,0 0.04,0.13 -0.27,-0.15c-1.2,-0.43 -2.1,-0.59 -3,-0.74c0,0 -0.18,-0.12 -0.56,-0.33c-1.08,-0.32 -1.78,-0.42 -2.49,-0.52c-0.14,-0.24 -0.33,-0.44 -0.67,-1.08c0.17,-1.88 0.46,-3.29 0.75,-4.7c0.23,-0.19 0.45,-0.42 1.18,-0.8c1.6,-0.03 2.66,0.07 3.71,0.16c0,0 0.15,0.07 0.52,0.3c2.07,0.61 3.77,1 5.46,1.38c0,0 0.02,-0.09 0.3,0.17c4.21,1.37 8.09,2.68 12.08,3.47c1.14,0.22 2.58,-1.08 3.87,-1.69c0.26,-0.22 0.39,-0.49 0.61,-1.35c0.92,-3.58 1.64,-6.63 2.37,-9.68c0,0 0.16,-0.16 0.37,-0.55c1.47,-3.38 1.04,-5.44 -2.66,-5.91c-1.62,-0.21 -3.22,-0.66 -4.82,-1c0,0 -0.16,-0.06 -0.55,-0.29c-2.09,-0.6 -3.8,-0.99 -5.51,-1.37z" fill="#FDEEEE" id="svg_14" opacity="1"/>
  <path d="m436.05,335.21c-0.37,1.49 -0.65,2.61 -1.09,4.37c8.42,2.38 16.77,4.74 25.63,7.25c-0.52,2.09 -0.99,3.94 -1.66,6.64c-8.6,-2.34 -16.99,-4.63 -26.01,-7.1c0,4.42 0,8.24 0,12.8c-3.63,-1.03 -6.41,-1.81 -9.74,-2.75c2.57,-9.59 5.08,-18.96 7.73,-28.85c2.32,0.59 4.31,1.1 6.69,1.7c-0.56,2.11 -1.01,3.84 -1.55,5.94z" fill="#FCEDED" id="svg_15" opacity="1"/>
  <path d="m352.5,613.38c2.19,-7.89 4.21,-15.4 6.36,-23.42c2.21,0.56 4.06,1.03 6.5,1.66c-0.82,3.4 -1.59,6.56 -2.52,10.41c8.31,2.37 16.67,4.75 25.56,7.28c-0.58,2.24 -1.1,4.22 -1.72,6.59c-8.64,-2.37 -16.91,-4.64 -26.29,-7.22c0.2,4.32 0.38,8.08 0.59,12.55c-3.83,-0.52 -6.66,-0.9 -10.05,-1.37c0.54,-2.36 0.98,-4.24 1.57,-6.48z" fill="#FCEDEC" id="svg_16" opacity="1"/>
  <path d="m425,381.15c0,0 0.15,0.17 0.55,0.43c4.96,1.5 9.49,2.88 14.1,3.87c1.01,0.22 2.33,-0.93 3.5,-1.45c0,0 0.17,-0.17 0.4,-0.58c1.04,-3.73 1.84,-7.07 2.64,-10.4c0,0 0.16,-0.17 0.38,-0.56c0.98,-2.38 1.74,-4.36 2.51,-6.35c0,0 -0.05,-0.11 0.22,0.03c0.6,0.21 0.93,0.27 1.26,0.33c0,0 0.08,-0.03 0.36,0.22c1.46,0.68 2.63,1.12 3.68,1.52c-0.29,1.83 -0.52,3.26 -0.75,4.7c0,0 0.13,0.06 -0.2,0.26c-0.8,2.4 -1.27,4.6 -1.74,6.81c0,0 -0.22,0.23 -0.43,0.67c-1.12,3.26 -2.03,6.08 -2.93,8.89c0,0 0.36,0.28 -0.09,0.3c-1.15,0.72 -1.84,1.41 -2.54,2.1c0,0 0.06,0.06 -0.26,0.04c-0.64,0.22 -0.97,0.46 -1.3,0.7c0,0 -0.2,-0.03 -0.68,0.02c-1.55,0.09 -2.63,0.14 -3.7,0.19c0,0 -0.21,-0.19 -0.62,-0.39c-1.38,-0.35 -2.36,-0.5 -3.33,-0.64c0,0 -0.22,-0.21 -0.65,-0.42c-1.42,-0.35 -2.41,-0.5 -3.41,-0.64c0,0 -0.13,-0.14 -0.49,-0.38c-1.05,-0.32 -1.75,-0.4 -2.44,-0.47c0,0 -0.03,0.05 -0.29,-0.2c-1.64,-0.58 -3.02,-0.91 -4.39,-1.24c0,0 -0.04,0.06 -0.34,-0.18c-3.16,-1.3 -6.02,-2.37 -8.87,-3.44c0,0 -0.15,0.09 0.09,-0.24c0.48,-1.41 0.72,-2.49 0.95,-3.57c0.41,-0.57 0.83,-1.15 1.75,-1.54c2.7,0.66 4.88,1.14 7.06,1.61z" fill="#FDEEEE" id="svg_17" opacity="1"/>
  <path d="m417.15,426.2c3.2,0.48 6.5,1.26 10.09,2.32c-0.84,0.77 -1.98,1.27 -3.19,2.15c-2.12,0.04 -4.15,-0.3 -6.58,-0.58c-0.33,-1.15 -0.27,-2.37 -0.32,-3.89z" fill="#A32021" id="svg_18" opacity="1"/>
  <path d="m442.71,384.01c-0.73,0.51 -2.05,1.66 -3.06,1.44c-4.61,-0.99 -9.14,-2.37 -13.99,-3.89c5.34,0.64 10.97,1.55 17.05,2.45z" fill="#A32021" id="svg_19" opacity="1"/>
  <path d="m432.75,420.03c-0.84,0.61 -2.28,1.91 -3.42,1.69c-3.99,-0.79 -7.87,-2.1 -12.1,-3.44c4.82,0.44 9.94,1.1 15.52,1.75z" fill="#A32021" id="svg_20" opacity="1"/>
  <path d="m347.25,656.21c4.62,0.87 9.46,2.04 14.58,3.43c-4.6,-0.89 -9.49,-2.01 -14.58,-3.43z" fill="#A52627" id="svg_21" opacity="1"/>
  <path d="m443.23,412.79c0.07,-3.48 0.44,-7.18 0.76,-11.32c4,3.57 1.66,7.34 -0.76,11.32z" fill="#A32021" id="svg_22" opacity="1"/>
  <path d="m426.82,392.85c-4.12,-0.59 -8.45,-1.49 -13.12,-2.27c0.31,-0.42 1.12,-1.52 1.61,-1.39c3.8,0.98 7.54,2.2 11.51,3.66z" fill="#A32021" id="svg_23" opacity="1"/>
  <path d="m429.2,401.91c1.47,-0.03 3.07,0.42 4.69,0.63c3.7,0.47 4.13,2.53 2.63,5.8c-0.43,-1.01 -0.63,-2.29 -0.8,-3.41c-2.26,-0.94 -4.32,-1.79 -6.52,-3.02z" fill="#A32021" id="svg_24" opacity="1"/>
  <path d="m454.2,372.77c-0.12,-1.3 0.11,-2.73 0.4,-4.56c-1.05,-0.4 -2.22,-0.84 -3.65,-1.49c1.34,0.08 4.09,0.02 4.32,0.74c0.46,1.51 -0.4,3.43 -1.07,5.31z" fill="#A32021" id="svg_25" opacity="1"/>
  <path d="m415.11,385.27c2.89,0.69 5.75,1.76 8.88,3.04c-2.79,-0.74 -5.85,-1.7 -8.88,-3.04z" fill="#A32021" id="svg_26" opacity="1"/>
  <path d="m421.82,460.25c-0.94,4.41 2.6,4.27 5.8,4.92c-5.53,1.7 -6.97,0.65 -5.8,-4.92z" fill="#A32021" id="svg_27" opacity="1"/>
  <path d="m430.32,459.9c0.31,-2.64 1,-5.35 1.93,-8.35c-0.35,2.57 -0.95,5.42 -1.93,8.35z" fill="#A32021" id="svg_28" opacity="1"/>
  <path d="m364.69,691.9c-1.67,-0.12 -3.47,-0.57 -5.58,-1.09c0.41,-1.55 0.72,-2.73 1.26,-4.19c1.54,1.46 2.86,3.2 4.32,5.28z" fill="#A52627" id="svg_29" opacity="1"/>
  <path d="m435.86,409.19c-0.41,2.86 -1.13,5.91 -2.1,9.26c0.43,-2.83 1.1,-5.95 2.1,-9.26z" fill="#A32021" id="svg_30" opacity="1"/>
  <path d="m448.93,389.56c0.52,-2.83 1.43,-5.65 2.58,-8.75c-0.57,2.73 -1.38,5.75 -2.58,8.75z" fill="#A32021" id="svg_31" opacity="1"/>
  <path d="m445.87,373.21c-0.48,3.14 -1.28,6.48 -2.35,10.1c0.5,-3.11 1.26,-6.51 2.35,-10.1z" fill="#A32021" id="svg_32" opacity="1"/>
  <path d="m424.81,380.86c-1.99,-0.18 -4.17,-0.66 -6.61,-1.4c1.97,0.2 4.19,0.65 6.61,1.4z" fill="#A32021" id="svg_33" opacity="1"/>
  <path d="m364.39,673.97c1.1,-4.35 3.84,0.13 6.22,-0.9c-1.68,0.27 -3.74,0.58 -6.22,0.9z" fill="#A52627" id="svg_34" opacity="1"/>
  <path d="m362.28,660.18c2.49,-0.05 5.18,0.22 8.29,0.5c-2.42,-0.06 -5.26,-0.12 -8.29,-0.5z" fill="#A52627" id="svg_35" opacity="1"/>
  <path d="m423.69,453.1c-0.04,1.9 -0.48,3.88 -1.17,6.15c0.09,-1.84 0.43,-3.95 1.17,-6.15z" fill="#A32021" id="svg_36" opacity="1"/>
  <path d="m448.68,366.1c-0.37,2 -1.13,3.98 -2.14,6.25c0.42,-1.9 1.08,-4.08 2.14,-6.25z" fill="#A32021" id="svg_37" opacity="1"/>
  <path d="m452.21,379.77c0.17,-2 0.64,-4.2 1.39,-6.65c-0.18,1.98 -0.63,4.21 -1.39,6.65z" fill="#A32021" id="svg_38" opacity="1"/>
  <path d="m362.76,663.73c-1.94,-0.2 -4.11,-0.71 -6.57,-1.42c1.92,0.24 4.14,0.68 6.57,1.42z" fill="#A52627" id="svg_39" opacity="1"/>
  <path d="m361.02,685.77c0.13,-1.82 0.6,-3.83 1.32,-6.15c-0.16,1.79 -0.57,3.88 -1.32,6.15z" fill="#A52627" id="svg_40" opacity="1"/>
  <path d="m405.72,417.1c0.07,1.35 -0.22,2.76 -0.56,4.53c0.03,-1.26 0.11,-2.87 0.56,-4.53z" fill="#A32021" id="svg_41" opacity="1"/>
  <path d="m440.16,423.78c0.02,-1.3 0.36,-2.72 0.87,-4.46c-0.07,1.23 -0.31,2.79 -0.87,4.46z" fill="#A32021" id="svg_42" opacity="1"/>
  <path d="m430.86,441.81c-1,-1.1 -1.97,-2.57 -2.97,-4.37c0.98,1.11 1.99,2.55 2.97,4.37z" fill="#A32021" id="svg_43" opacity="1"/>
  <path d="m423.22,400.2c1.5,0.06 3.21,0.45 5.22,1.06c-1.47,-0.09 -3.24,-0.41 -5.22,-1.06z" fill="#A32021" id="svg_44" opacity="1"/>
  <path d="m433.78,394.79c-1.77,-0.14 -3.78,-0.58 -6.09,-1.27c1.76,0.15 3.81,0.56 6.09,1.27z" fill="#A32021" id="svg_45" opacity="1"/>
  <path d="m415.25,398.08c1.31,-0.01 2.73,0.29 4.46,0.8c-1.25,-0.02 -2.79,-0.26 -4.46,-0.8z" fill="#A32021" id="svg_46" opacity="1"/>
  <path d="m439.83,396.67c-1.48,-0.09 -3.15,-0.51 -5.1,-1.2c1.45,0.11 3.18,0.49 5.1,1.2z" fill="#A32021" id="svg_47" opacity="1"/>
  <path d="m416.78,417.72c-1.52,-0.02 -3.22,-0.41 -5.21,-1.03c1.48,0.06 3.26,0.37 5.21,1.03z" fill="#A32021" id="svg_48" opacity="1"/>
  <path d="m371.91,671.67c-0.28,-1.46 -0.19,-3.06 -0.34,-5c0.09,1.39 0.4,3.13 0.34,5z" fill="#A52627" id="svg_49" opacity="1"/>
  <path d="m428.61,464.98c0.08,-1.43 0.5,-2.96 1.13,-4.77c-0.12,1.38 -0.45,3.02 -1.13,4.77z" fill="#A32021" id="svg_50" opacity="1"/>
  <path d="m424.11,447.2c0.23,1.29 0.42,3.07 0.37,5.08c-0.3,-1.37 -0.36,-2.99 -0.37,-5.08z" fill="#A32021" id="svg_51" opacity="1"/>
  <path d="m427.93,436.77c-0.77,-0.67 -1.48,-1.71 -2.28,-3.06c0.71,0.69 1.52,1.69 2.28,3.06z" fill="#A32021" id="svg_52" opacity="1"/>
  <path d="m415.87,381.19c0.09,0.97 -0.15,2.05 -0.55,3.42c-0.03,-0.91 0.1,-2.12 0.55,-3.42z" fill="#A32021" id="svg_53" opacity="1"/>
  <path d="m424.43,388.89c1.3,-0.05 2.68,0.28 4.34,0.84c-1.24,-0.01 -2.75,-0.24 -4.34,-0.84z" fill="#A32021" id="svg_54" opacity="1"/>
  <path d="m362.99,678.8c-0.03,-1.27 0.27,-2.74 0.78,-4.52c-0.01,1.23 -0.23,2.78 -0.78,4.52z" fill="#A52627" id="svg_55" opacity="1"/>
  <path d="m432.87,450.83c-0.25,-1.24 -0.14,-2.62 0.02,-4.42c0.14,1.15 0.23,2.71 -0.02,4.42z" fill="#A32021" id="svg_56" opacity="1"/>
  <path d="m446.27,391.95c0.35,-0.7 1.04,-1.39 1.99,-2.23c-0.37,0.65 -1.01,1.44 -1.99,2.23z" fill="#A32021" id="svg_57" opacity="1"/>
  <path d="m412.11,396.23c0.91,0.12 1.79,0.6 2.87,1.33c-0.83,-0.16 -1.86,-0.56 -2.87,-1.33z" fill="#A32021" id="svg_58" opacity="1"/>
  <path d="m440.19,393.17c0.86,-0.33 1.94,-0.38 3.41,-0.4c-0.79,0.24 -2,0.46 -3.41,0.4z" fill="#A32021" id="svg_59" opacity="1"/>
  <path d="m410.84,416.07c-0.92,0.24 -1.98,0.14 -3.43,0c0.84,-0.14 2.06,-0.23 3.43,0z" fill="#A32021" id="svg_60" opacity="1"/>
  <path d="m366.78,664.81c-0.93,0.08 -2.09,-0.13 -3.53,-0.56c0.91,-0.06 2.11,0.11 3.53,0.56z" fill="#A52627" id="svg_61" opacity="1"/>
  <path d="m432.21,391.11c0.76,-0.17 1.75,-0.02 3.03,0.38c-0.74,0.14 -1.77,0.04 -3.03,-0.38z" fill="#A32021" id="svg_62" opacity="1"/>
  <path d="m370.74,665.85c-0.75,0.17 -1.72,0.02 -2.98,-0.37c0.73,-0.14 1.74,-0.04 2.98,0.37z" fill="#A52627" id="svg_63" opacity="1"/>
  <path d="m436.26,392.17c0.74,-0.17 1.72,-0.02 2.97,0.38c-0.73,0.14 -1.74,0.03 -2.97,-0.38z" fill="#A32021" id="svg_64" opacity="1"/>
  <path d="m409.22,424.01c0.73,-0.19 1.63,-0.03 2.79,0.35c-0.7,0.14 -1.66,0.06 -2.79,-0.35z" fill="#A32021" id="svg_65" opacity="1"/>
  <path d="m412.34,424.87c0.67,-0.21 1.36,-0.1 2.36,0.17c-0.57,0.16 -1.45,0.15 -2.36,-0.17z" fill="#A32021" id="svg_66" opacity="1"/>
  <path d="m450.6,366.2c-0.37,0.21 -0.7,0.15 -1.27,-0.01c0.28,-0.14 0.79,-0.21 1.27,0.01z" fill="#A32021" id="svg_67" opacity="1"/>
  <path d="m443.96,400.72c-0.37,-0.12 -0.74,-0.56 -1.18,-1.3c0.35,0.13 0.77,0.55 1.18,1.3z" fill="#A32021" id="svg_68" opacity="1"/>
  <path d="m429.27,390.23c0.46,-0.21 1.16,-0.13 2.12,0.2c-0.46,0.19 -1.17,0.14 -2.12,-0.2z" fill="#A32021" id="svg_69" opacity="1"/>
  <path d="m431.96,443.75c-0.39,-0.13 -0.76,-0.58 -1.15,-1.33c0.37,0.14 0.77,0.58 1.15,1.33z" fill="#A32021" id="svg_70" opacity="1"/>
  <path d="m428.11,429.16c0.34,-0.21 0.8,-0.18 1.58,-0.02c-0.28,0.18 -0.87,0.21 -1.58,0.02z" fill="#A32021" id="svg_71" opacity="1"/>
  <path d="m439.11,425.77c-0.11,-0.43 0.07,-1 0.5,-1.73c0.09,0.41 -0.06,1 -0.5,1.73z" fill="#A32021" id="svg_72" opacity="1"/>
  <path d="m406.23,423.13c0.48,-0.21 1.18,-0.11 2.16,0.24c-0.47,0.18 -1.2,0.12 -2.16,-0.24z" fill="#A32021" id="svg_73" opacity="1"/>
  <path d="m442.15,416.71c-0.21,-0.48 -0.12,-1.17 0.21,-2.13c0.18,0.45 0.14,1.18 -0.21,2.13z" fill="#A32021" id="svg_74" opacity="1"/>
  <path d="m444.68,392.71c0.01,-0.27 0.34,-0.51 0.98,-0.77c-0.01,0.25 -0.33,0.52 -0.98,0.77z" fill="#A32021" id="svg_75" opacity="1"/>
  <path d="m432.77,445.21c-0.27,0.02 -0.54,-0.27 -0.83,-0.87c0.27,-0.02 0.55,0.27 0.83,0.87z" fill="#A32021" id="svg_76" opacity="1"/>
  <path d="m425.59,433.08c-0.27,0.02 -0.49,-0.23 -0.72,-0.74c0.24,-0.02 0.51,0.22 0.72,0.74z" fill="#A32021" id="svg_77" opacity="1"/>
  <path d="m424.85,431.89c-0.23,0.06 -0.5,-0.14 -0.84,-0.6c0.22,-0.06 0.5,0.13 0.84,0.6z" fill="#A32021" id="svg_78" opacity="1"/>
  <path d="m371.63,660.6c-0.02,-0.3 0.29,-0.55 0.91,-0.86c0.01,0.27 -0.28,0.58 -0.91,0.86z" fill="#A52627" id="svg_79" opacity="1"/>
  <path d="m434.11,429.36c0.04,-0.23 0.2,-0.32 0.62,-0.4c0.02,0.19 -0.24,0.37 -0.62,0.4z" fill="#A32021" id="svg_80" opacity="1"/>
  <path d="m435.79,428.75c-0.03,-0.26 0.25,-0.54 0.83,-0.87c0.03,0.24 -0.24,0.55 -0.83,0.87z" fill="#A32021" id="svg_81" opacity="1"/>
  <path d="m438.14,426.87c-0.09,-0.22 0.07,-0.53 0.48,-0.94c0.1,0.21 -0.06,0.53 -0.48,0.94z" fill="#A32021" id="svg_82" opacity="1"/>
  <path d="m441.76,397.94c-0.24,0.13 -0.61,-0.03 -1.12,-0.46c0.23,-0.13 0.61,0.02 1.12,0.46z" fill="#A32021" id="svg_83" opacity="1"/>
  <path d="m447.54,316.47c-0.53,1.61 -0.94,2.86 -1.48,4.52c-2.05,-0.58 -3.91,-1.11 -6.15,-1.75c1.75,-6.44 3.43,-12.61 5.25,-19.31c2.28,0.68 4.1,1.21 6.34,1.87c-1.35,5.04 -2.59,9.67 -3.96,14.67z" fill="#A81718" id="svg_84" opacity="1"/>
  <path d="m456.1,313.09c-0.12,0.39 -0.42,0.61 -0.72,0.82c-0.05,-0.29 -0.11,-0.57 0,-1.1c0.29,-0.12 0.41,0 0.72,0.28z" fill="#AD0202" id="svg_85" opacity="1"/>
  <path d="m389.52,502.38c1.31,-4.64 2.49,-8.91 3.8,-13.67c2.18,0.61 3.99,1.12 6.32,1.77c-1.75,6.48 -3.41,12.59 -5.18,19.14c-2.35,-0.68 -4.17,-1.21 -6.24,-1.8c0.45,-1.92 0.81,-3.49 1.3,-5.44z" fill="#A81718" id="svg_86" opacity="1"/>
  <path d="m456.48,275.45c-0.78,-1.32 -1.82,-2.34 -1.83,-3.35c-0.01,-2.23 0.1,-4.65 1.01,-6.58c0.31,-0.65 3.26,-0.3 4.92,0.02c2.41,0.46 4.74,1.31 7.45,2.09c-1.65,6.07 -3.19,11.73 -5.13,18.88c-2.59,-4.49 -4.39,-7.62 -6.42,-11.06z" fill="#AA1415" id="svg_87" opacity="1"/>
  <path d="m398.56,529.24c1.58,0.59 2.79,1.07 4.36,1.69c-1.49,5.45 -2.81,10.73 -4.48,15.9c-0.3,0.92 -2.25,2.11 -3.16,1.91c-4.71,-1.01 -9.38,-2.27 -13.94,-3.84c-0.97,-0.33 -2.13,-2.42 -1.93,-3.45c0.9,-4.39 2.42,-8.64 3.41,-13.02c0.61,-2.74 2.05,-3.04 4.34,-2.37c3.66,1.06 7.35,2.05 11.4,3.18z" fill="#A9090A" id="svg_88" opacity="1"/>
  <path d="m344.2,669.1c1.12,-0.94 2.27,-2.12 3.12,-1.93c3.35,0.71 6.61,1.85 10.29,2.95c-1.69,6.12 -3.28,11.91 -4.88,17.69c-0.39,0.1 -0.79,0.21 -1.18,0.31c-2.32,-6.29 -9.48,-10.37 -7.35,-19.02z" fill="#A70F10" id="svg_89" opacity="1"/>
 </g>
</svg>